<svg width="99" height="26" viewBox="0 0 99 26" fill="none" xmlns="http://www.w3.org/2000/svg">
<path d="M7.14975 2.568C10.4778 2.568 13.0271 3.16533 14.7978 4.36C16.5684 5.53333 17.4538 7.368 17.4538 9.864C17.4538 11.4213 17.0911 12.6907 16.3658 13.672C15.6618 14.632 14.6378 15.3893 13.2938 15.944C13.7418 16.4987 14.2111 17.1387 14.7018 17.864C15.1924 18.568 15.6724 19.3147 16.1418 20.104C16.6324 20.872 17.1018 21.6827 17.5498 22.536C17.9978 23.368 18.4138 24.1893 18.7978 25H13.1978C12.7924 24.2747 12.3764 23.5387 11.9498 22.792C11.5444 22.0453 11.1178 21.32 10.6698 20.616C10.2431 19.912 9.81642 19.2507 9.38975 18.632C8.96308 17.992 8.53642 17.416 8.10975 16.904H5.64575V25H0.65375V3.144C1.74175 2.93067 2.86175 2.78133 4.01375 2.696C5.18708 2.61067 6.23242 2.568 7.14975 2.568ZM7.43775 6.824C7.07508 6.824 6.74442 6.83467 6.44575 6.856C6.16842 6.87733 5.90175 6.89867 5.64575 6.92V12.936H7.05375C8.93108 12.936 10.2751 12.7013 11.0858 12.232C11.8964 11.7627 12.3018 10.9627 12.3018 9.832C12.3018 8.744 11.8858 7.976 11.0538 7.528C10.2431 7.05867 9.03775 6.824 7.43775 6.824ZM26.0455 21.192C26.7495 21.192 27.3255 21.1387 27.7735 21.032C28.2428 20.904 28.6162 20.744 28.8935 20.552C29.1708 20.3387 29.3628 20.0933 29.4695 19.816C29.5762 19.5387 29.6295 19.2293 29.6295 18.888C29.6295 18.1627 29.2882 17.5653 28.6055 17.096C27.9228 16.6053 26.7495 16.0827 25.0855 15.528C24.3602 15.272 23.6348 14.984 22.9095 14.664C22.1842 14.3227 21.5335 13.9067 20.9575 13.416C20.3815 12.904 19.9122 12.296 19.5495 11.592C19.1868 10.8667 19.0055 9.992 19.0055 8.968C19.0055 7.944 19.1975 7.02667 19.5815 6.216C19.9655 5.384 20.5095 4.68 21.2135 4.104C21.9175 3.528 22.7708 3.09067 23.7735 2.792C24.7762 2.472 25.9068 2.312 27.1655 2.312C28.6588 2.312 29.9495 2.472 31.0375 2.792C32.1255 3.112 33.0215 3.464 33.7255 3.848L32.2855 7.784C31.6668 7.464 30.9735 7.18667 30.2055 6.952C29.4588 6.696 28.5522 6.568 27.4855 6.568C26.2908 6.568 25.4268 6.73867 24.8935 7.08C24.3815 7.4 24.1255 7.90133 24.1255 8.584C24.1255 8.98933 24.2215 9.33067 24.4135 9.608C24.6055 9.88533 24.8722 10.1413 25.2135 10.376C25.5762 10.5893 25.9815 10.792 26.4295 10.984C26.8988 11.1547 27.4108 11.336 27.9655 11.528C29.1175 11.9547 30.1202 12.3813 30.9735 12.808C31.8268 13.2133 32.5308 13.6933 33.0855 14.248C33.6615 14.8027 34.0882 15.4533 34.3655 16.2C34.6428 16.9467 34.7815 17.8533 34.7815 18.92C34.7815 20.9893 34.0562 22.6 32.6055 23.752C31.1548 24.8827 28.9682 25.448 26.0455 25.448C25.0642 25.448 24.1788 25.384 23.3895 25.256C22.6002 25.1493 21.8962 25.0107 21.2775 24.84C20.6802 24.6693 20.1575 24.488 19.7095 24.296C19.2828 24.104 18.9202 23.9227 18.6215 23.752L20.0295 19.784C20.6908 20.1467 21.5015 20.4773 22.4615 20.776C23.4428 21.0533 24.6375 21.192 26.0455 21.192ZM35.5025 16.584C35.5025 15.368 35.6945 14.2267 36.0785 13.16C36.4838 12.072 37.0598 11.1333 37.8065 10.344C38.5532 9.53333 39.4598 8.89333 40.5265 8.424C41.5932 7.95467 42.8092 7.72 44.1745 7.72C45.0705 7.72 45.8918 7.80533 46.6385 7.976C47.3852 8.12533 48.1105 8.34933 48.8145 8.648L47.8225 12.456C47.3745 12.2853 46.8838 12.136 46.3505 12.008C45.8172 11.88 45.2198 11.816 44.5585 11.816C43.1505 11.816 42.0945 12.2533 41.3905 13.128C40.7078 14.0027 40.3665 15.1547 40.3665 16.584C40.3665 18.0987 40.6865 19.272 41.3265 20.104C41.9878 20.936 43.1292 21.352 44.7505 21.352C45.3265 21.352 45.9452 21.2987 46.6065 21.192C47.2678 21.0853 47.8758 20.9147 48.4305 20.68L49.1025 24.584C48.5478 24.8187 47.8545 25.0213 47.0225 25.192C46.1905 25.3627 45.2732 25.448 44.2705 25.448C42.7345 25.448 41.4118 25.224 40.3025 24.776C39.1932 24.3067 38.2758 23.6773 37.5505 22.888C36.8465 22.0987 36.3238 21.1707 35.9825 20.104C35.6625 19.016 35.5025 17.8427 35.5025 16.584ZM50.3025 25V0.935999L55.0705 0.167999V8.232C55.3905 8.12533 55.7958 8.02933 56.2865 7.944C56.7985 7.83733 57.2892 7.784 57.7585 7.784C59.1238 7.784 60.2545 7.976 61.1505 8.36C62.0678 8.72267 62.7932 9.24533 63.3265 9.928C63.8812 10.6107 64.2652 11.4213 64.4785 12.36C64.7132 13.2987 64.8305 14.344 64.8305 15.496V25H60.0625V16.072C60.0625 14.536 59.8598 13.448 59.4545 12.808C59.0705 12.168 58.3452 11.848 57.2785 11.848C56.8518 11.848 56.4465 11.8907 56.0625 11.976C55.6998 12.04 55.3692 12.1147 55.0705 12.2V25H50.3025ZM66.3463 16.712C66.3463 15.2187 66.5703 13.9173 67.0182 12.808C67.4876 11.6773 68.0956 10.7387 68.8423 9.992C69.5889 9.24533 70.4423 8.68 71.4023 8.296C72.3836 7.912 73.3863 7.72 74.4103 7.72C76.7996 7.72 78.6876 8.456 80.0743 9.928C81.4609 11.3787 82.1543 13.5227 82.1543 16.36C82.1543 16.6373 82.1436 16.9467 82.1223 17.288C82.1009 17.608 82.0796 17.896 82.0583 18.152H71.2423C71.3489 19.1333 71.8076 19.912 72.6183 20.488C73.4289 21.064 74.5169 21.352 75.8823 21.352C76.7569 21.352 77.6103 21.2773 78.4423 21.128C79.2956 20.9573 79.9889 20.7547 80.5223 20.52L81.1623 24.392C80.9063 24.52 80.5649 24.648 80.1383 24.776C79.7116 24.904 79.2316 25.0107 78.6983 25.096C78.1863 25.2027 77.6316 25.288 77.0343 25.352C76.4369 25.416 75.8396 25.448 75.2423 25.448C73.7276 25.448 72.4049 25.224 71.2743 24.776C70.1649 24.328 69.2369 23.72 68.4903 22.952C67.7649 22.1627 67.2209 21.2347 66.8583 20.168C66.5169 19.1013 66.3463 17.9493 66.3463 16.712ZM77.5463 14.888C77.5249 14.4827 77.4503 14.088 77.3223 13.704C77.2156 13.32 77.0343 12.9787 76.7783 12.68C76.5436 12.3813 76.2343 12.136 75.8503 11.944C75.4876 11.752 75.0289 11.656 74.4743 11.656C73.9409 11.656 73.4823 11.752 73.0983 11.944C72.7143 12.1147 72.3943 12.3493 72.1383 12.648C71.8823 12.9467 71.6796 13.2987 71.5303 13.704C71.4023 14.088 71.3063 14.4827 71.2423 14.888H77.5463ZM87.8978 16.456C87.8978 17.928 88.2284 19.112 88.8898 20.008C89.5511 20.904 90.5324 21.352 91.8338 21.352C92.2604 21.352 92.6551 21.3413 93.0178 21.32C93.3804 21.2773 93.6791 21.2347 93.9138 21.192V12.52C93.6151 12.328 93.2204 12.168 92.7298 12.04C92.2604 11.912 91.7804 11.848 91.2898 11.848C89.0284 11.848 87.8978 13.384 87.8978 16.456ZM98.6818 24.456C98.2551 24.584 97.7644 24.712 97.2098 24.84C96.6551 24.9467 96.0684 25.0427 95.4498 25.128C94.8524 25.2133 94.2338 25.2773 93.5938 25.32C92.9751 25.384 92.3778 25.416 91.8018 25.416C90.4151 25.416 89.1778 25.2133 88.0898 24.808C87.0018 24.4027 86.0844 23.8267 85.3378 23.08C84.5911 22.312 84.0151 21.3947 83.6098 20.328C83.2258 19.24 83.0338 18.024 83.0338 16.68C83.0338 15.3147 83.2044 14.088 83.5458 13C83.8871 11.8907 84.3778 10.952 85.0178 10.184C85.6578 9.416 86.4364 8.82933 87.3538 8.424C88.2924 8.01867 89.3591 7.816 90.5538 7.816C91.2151 7.816 91.8018 7.88 92.3138 8.008C92.8471 8.136 93.3804 8.31733 93.9138 8.552V0.935999L98.6818 0.167999V24.456Z" fill="url(#paint0_linear_1189_4235)"/>
<defs>
<linearGradient id="paint0_linear_1189_4235" x1="-98" y1="13" x2="197" y2="13" gradientUnits="userSpaceOnUse">
<stop stop-color="#C77CFF"/>
<stop offset="1" stop-color="#9D57FF"/>
</linearGradient>
</defs>
</svg>
