<svg width="247" height="26" viewBox="0 0 247 26" fill="none" xmlns="http://www.w3.org/2000/svg">
<path d="M7.4935 2.568C10.8215 2.568 13.3708 3.16533 15.1415 4.36C16.9122 5.53333 17.7975 7.368 17.7975 9.864C17.7975 11.4213 17.4348 12.6907 16.7095 13.672C16.0055 14.632 14.9815 15.3893 13.6375 15.944C14.0855 16.4987 14.5548 17.1387 15.0455 17.864C15.5362 18.568 16.0162 19.3147 16.4855 20.104C16.9762 20.872 17.4455 21.6827 17.8935 22.536C18.3415 23.368 18.7575 24.1893 19.1415 25H13.5415C13.1362 24.2747 12.7202 23.5387 12.2935 22.792C11.8882 22.0453 11.4615 21.32 11.0135 20.616C10.5868 19.912 10.1602 19.2507 9.7335 18.632C9.30683 17.992 8.88017 17.416 8.4535 16.904H5.9895V25H0.9975V3.144C2.0855 2.93067 3.2055 2.78133 4.3575 2.696C5.53083 2.61067 6.57617 2.568 7.4935 2.568ZM7.7815 6.824C7.41883 6.824 7.08817 6.83467 6.7895 6.856C6.51217 6.87733 6.2455 6.89867 5.9895 6.92V12.936H7.3975C9.27483 12.936 10.6188 12.7013 11.4295 12.232C12.2402 11.7627 12.6455 10.9627 12.6455 9.832C12.6455 8.744 12.2295 7.976 11.3975 7.528C10.5868 7.05867 9.3815 6.824 7.7815 6.824ZM34.9528 16.552C34.9528 17.8747 34.7608 19.0907 34.3768 20.2C33.9928 21.288 33.4381 22.2267 32.7128 23.016C31.9874 23.784 31.1128 24.3813 30.0888 24.808C29.0861 25.2347 27.9554 25.448 26.6968 25.448C25.4594 25.448 24.3288 25.2347 23.3048 24.808C22.3021 24.3813 21.4381 23.784 20.7128 23.016C19.9874 22.2267 19.4221 21.288 19.0168 20.2C18.6114 19.0907 18.4088 17.8747 18.4088 16.552C18.4088 15.2293 18.6114 14.024 19.0168 12.936C19.4434 11.848 20.0194 10.92 20.7448 10.152C21.4914 9.384 22.3661 8.78667 23.3688 8.36C24.3928 7.93333 25.5021 7.72 26.6968 7.72C27.9128 7.72 29.0221 7.93333 30.0248 8.36C31.0488 8.78667 31.9234 9.384 32.6488 10.152C33.3741 10.92 33.9394 11.848 34.3448 12.936C34.7501 14.024 34.9528 15.2293 34.9528 16.552ZM30.0888 16.552C30.0888 15.08 29.7901 13.928 29.1928 13.096C28.6168 12.2427 27.7848 11.816 26.6968 11.816C25.6088 11.816 24.7661 12.2427 24.1688 13.096C23.5714 13.928 23.2728 15.08 23.2728 16.552C23.2728 18.024 23.5714 19.1973 24.1688 20.072C24.7661 20.9253 25.6088 21.352 26.6968 21.352C27.7848 21.352 28.6168 20.9253 29.1928 20.072C29.7901 19.1973 30.0888 18.024 30.0888 16.552ZM51.0143 24.424C50.2036 24.6587 49.1583 24.872 47.8783 25.064C46.5983 25.2773 45.2543 25.384 43.8463 25.384C42.4169 25.384 41.2223 25.192 40.2623 24.808C39.3236 24.424 38.5769 23.8907 38.0223 23.208C37.4676 22.504 37.0729 21.672 36.8383 20.712C36.6036 19.752 36.4863 18.696 36.4863 17.544V8.168H41.2543V16.968C41.2543 18.504 41.4569 19.6133 41.8623 20.296C42.2676 20.9787 43.0249 21.32 44.1343 21.32C44.4756 21.32 44.8383 21.3093 45.2223 21.288C45.6063 21.2453 45.9476 21.2027 46.2463 21.16V8.168H51.0143V24.424ZM53.33 3.976L58.098 3.208V8.168H63.826V12.136H58.098V18.056C58.098 19.0587 58.2687 19.8587 58.61 20.456C58.9727 21.0533 59.6873 21.352 60.754 21.352C61.266 21.352 61.7887 21.3093 62.322 21.224C62.8767 21.1173 63.378 20.9787 63.826 20.808L64.498 24.52C63.922 24.7547 63.282 24.9573 62.578 25.128C61.874 25.2987 61.01 25.384 59.986 25.384C58.6847 25.384 57.6073 25.2133 56.754 24.872C55.9007 24.5093 55.218 24.0187 54.706 23.4C54.194 22.76 53.8313 21.992 53.618 21.096C53.426 20.2 53.33 19.208 53.33 18.12V3.976ZM70.4768 25H65.7088V8.168H70.4768V25ZM70.9248 3.304C70.9248 4.17867 70.6368 4.872 70.0608 5.384C69.5061 5.87467 68.8448 6.12 68.0768 6.12C67.3088 6.12 66.6368 5.87467 66.0608 5.384C65.5061 4.872 65.2288 4.17867 65.2288 3.304C65.2288 2.42933 65.5061 1.74667 66.0608 1.256C66.6368 0.743999 67.3088 0.487999 68.0768 0.487999C68.8448 0.487999 69.5061 0.743999 70.0608 1.256C70.6368 1.74667 70.9248 2.42933 70.9248 3.304ZM72.9588 8.744C73.7694 8.50933 74.8148 8.296 76.0948 8.104C77.3748 7.89067 78.7188 7.784 80.1267 7.784C81.5561 7.784 82.7401 7.976 83.6788 8.36C84.6388 8.72267 85.3961 9.24533 85.9508 9.928C86.5054 10.6107 86.9001 11.4213 87.1348 12.36C87.3694 13.2987 87.4868 14.344 87.4868 15.496V25H82.7188V16.072C82.7188 14.536 82.5161 13.448 82.1108 12.808C81.7054 12.168 80.9481 11.848 79.8388 11.848C79.4974 11.848 79.1348 11.8693 78.7508 11.912C78.3668 11.9333 78.0254 11.9653 77.7268 12.008V25H72.9588V8.744ZM89.0025 16.712C89.0025 15.2187 89.2265 13.9173 89.6745 12.808C90.1438 11.6773 90.7518 10.7387 91.4985 9.992C92.2452 9.24533 93.0985 8.68 94.0585 8.296C95.0398 7.912 96.0425 7.72 97.0665 7.72C99.4558 7.72 101.344 8.456 102.731 9.928C104.117 11.3787 104.811 13.5227 104.811 16.36C104.811 16.6373 104.8 16.9467 104.779 17.288C104.757 17.608 104.736 17.896 104.715 18.152H93.8985C94.0052 19.1333 94.4638 19.912 95.2745 20.488C96.0852 21.064 97.1732 21.352 98.5385 21.352C99.4132 21.352 100.267 21.2773 101.099 21.128C101.952 20.9573 102.645 20.7547 103.179 20.52L103.819 24.392C103.563 24.52 103.221 24.648 102.795 24.776C102.368 24.904 101.888 25.0107 101.355 25.096C100.843 25.2027 100.288 25.288 99.6905 25.352C99.0932 25.416 98.4958 25.448 97.8985 25.448C96.3838 25.448 95.0612 25.224 93.9305 24.776C92.8212 24.328 91.8932 23.72 91.1465 22.952C90.4212 22.1627 89.8772 21.2347 89.5145 20.168C89.1732 19.1013 89.0025 17.9493 89.0025 16.712ZM100.203 14.888C100.181 14.4827 100.107 14.088 99.9785 13.704C99.8718 13.32 99.6905 12.9787 99.4345 12.68C99.1998 12.3813 98.8905 12.136 98.5065 11.944C98.1438 11.752 97.6852 11.656 97.1305 11.656C96.5972 11.656 96.1385 11.752 95.7545 11.944C95.3705 12.1147 95.0505 12.3493 94.7945 12.648C94.5385 12.9467 94.3358 13.2987 94.1865 13.704C94.0585 14.088 93.9625 14.4827 93.8985 14.888H100.203ZM118.546 21.192C119.25 21.192 119.826 21.1387 120.274 21.032C120.743 20.904 121.116 20.744 121.394 20.552C121.671 20.3387 121.863 20.0933 121.97 19.816C122.076 19.5387 122.13 19.2293 122.13 18.888C122.13 18.1627 121.788 17.5653 121.106 17.096C120.423 16.6053 119.25 16.0827 117.586 15.528C116.86 15.272 116.135 14.984 115.41 14.664C114.684 14.3227 114.034 13.9067 113.458 13.416C112.882 12.904 112.412 12.296 112.049 11.592C111.687 10.8667 111.506 9.992 111.506 8.968C111.506 7.944 111.698 7.02667 112.082 6.216C112.466 5.384 113.01 4.68 113.714 4.104C114.418 3.528 115.271 3.09067 116.274 2.792C117.276 2.472 118.407 2.312 119.666 2.312C121.159 2.312 122.45 2.472 123.538 2.792C124.626 3.112 125.522 3.464 126.226 3.848L124.786 7.784C124.167 7.464 123.474 7.18667 122.706 6.952C121.959 6.696 121.052 6.568 119.986 6.568C118.791 6.568 117.927 6.73867 117.394 7.08C116.882 7.4 116.626 7.90133 116.626 8.584C116.626 8.98933 116.722 9.33067 116.914 9.608C117.106 9.88533 117.372 10.1413 117.714 10.376C118.076 10.5893 118.482 10.792 118.93 10.984C119.399 11.1547 119.911 11.336 120.466 11.528C121.618 11.9547 122.62 12.3813 123.474 12.808C124.327 13.2133 125.031 13.6933 125.586 14.248C126.162 14.8027 126.588 15.4533 126.866 16.2C127.143 16.9467 127.282 17.8533 127.282 18.92C127.282 20.9893 126.556 22.6 125.106 23.752C123.655 24.8827 121.468 25.448 118.546 25.448C117.564 25.448 116.679 25.384 115.89 25.256C115.1 25.1493 114.396 25.0107 113.778 24.84C113.18 24.6693 112.658 24.488 112.21 24.296C111.783 24.104 111.42 23.9227 111.122 23.752L112.53 19.784C113.191 20.1467 114.002 20.4773 114.962 20.776C115.943 21.0533 117.138 21.192 118.546 21.192ZM128.003 16.584C128.003 15.368 128.195 14.2267 128.579 13.16C128.984 12.072 129.56 11.1333 130.307 10.344C131.053 9.53333 131.96 8.89333 133.027 8.424C134.093 7.95467 135.309 7.72 136.675 7.72C137.571 7.72 138.392 7.80533 139.139 7.976C139.885 8.12533 140.611 8.34933 141.315 8.648L140.323 12.456C139.875 12.2853 139.384 12.136 138.851 12.008C138.317 11.88 137.72 11.816 137.059 11.816C135.651 11.816 134.595 12.2533 133.891 13.128C133.208 14.0027 132.867 15.1547 132.867 16.584C132.867 18.0987 133.187 19.272 133.827 20.104C134.488 20.936 135.629 21.352 137.251 21.352C137.827 21.352 138.445 21.2987 139.107 21.192C139.768 21.0853 140.376 20.9147 140.931 20.68L141.603 24.584C141.048 24.8187 140.355 25.0213 139.523 25.192C138.691 25.3627 137.773 25.448 136.771 25.448C135.235 25.448 133.912 25.224 132.803 24.776C131.693 24.3067 130.776 23.6773 130.051 22.888C129.347 22.0987 128.824 21.1707 128.483 20.104C128.163 19.016 128.003 17.8427 128.003 16.584ZM142.803 25V0.935999L147.571 0.167999V8.232C147.891 8.12533 148.296 8.02933 148.786 7.944C149.299 7.83733 149.789 7.784 150.259 7.784C151.624 7.784 152.755 7.976 153.651 8.36C154.568 8.72267 155.293 9.24533 155.827 9.928C156.381 10.6107 156.765 11.4213 156.979 12.36C157.213 13.2987 157.331 14.344 157.331 15.496V25H152.563V16.072C152.563 14.536 152.36 13.448 151.955 12.808C151.571 12.168 150.845 11.848 149.779 11.848C149.352 11.848 148.947 11.8907 148.562 11.976C148.2 12.04 147.869 12.1147 147.571 12.2V25H142.803ZM158.846 16.712C158.846 15.2187 159.07 13.9173 159.518 12.808C159.988 11.6773 160.596 10.7387 161.342 9.992C162.089 9.24533 162.942 8.68 163.902 8.296C164.884 7.912 165.886 7.72 166.91 7.72C169.3 7.72 171.188 8.456 172.574 9.928C173.961 11.3787 174.654 13.5227 174.654 16.36C174.654 16.6373 174.644 16.9467 174.622 17.288C174.601 17.608 174.58 17.896 174.558 18.152H163.742C163.849 19.1333 164.308 19.912 165.118 20.488C165.929 21.064 167.017 21.352 168.382 21.352C169.257 21.352 170.11 21.2773 170.942 21.128C171.796 20.9573 172.489 20.7547 173.022 20.52L173.662 24.392C173.406 24.52 173.065 24.648 172.638 24.776C172.212 24.904 171.732 25.0107 171.198 25.096C170.686 25.2027 170.132 25.288 169.534 25.352C168.937 25.416 168.34 25.448 167.742 25.448C166.228 25.448 164.905 25.224 163.774 24.776C162.665 24.328 161.737 23.72 160.99 22.952C160.265 22.1627 159.721 21.2347 159.358 20.168C159.017 19.1013 158.846 17.9493 158.846 16.712ZM170.046 14.888C170.025 14.4827 169.95 14.088 169.822 13.704C169.716 13.32 169.534 12.9787 169.278 12.68C169.044 12.3813 168.734 12.136 168.35 11.944C167.988 11.752 167.529 11.656 166.974 11.656C166.441 11.656 165.982 11.752 165.598 11.944C165.214 12.1147 164.894 12.3493 164.638 12.648C164.382 12.9467 164.18 13.2987 164.03 13.704C163.902 14.088 163.806 14.4827 163.742 14.888H170.046ZM180.398 16.456C180.398 17.928 180.728 19.112 181.39 20.008C182.051 20.904 183.032 21.352 184.334 21.352C184.76 21.352 185.155 21.3413 185.518 21.32C185.88 21.2773 186.179 21.2347 186.414 21.192V12.52C186.115 12.328 185.72 12.168 185.23 12.04C184.76 11.912 184.28 11.848 183.79 11.848C181.528 11.848 180.398 13.384 180.398 16.456ZM191.182 24.456C190.755 24.584 190.264 24.712 189.71 24.84C189.155 24.9467 188.568 25.0427 187.95 25.128C187.352 25.2133 186.734 25.2773 186.094 25.32C185.475 25.384 184.878 25.416 184.302 25.416C182.915 25.416 181.678 25.2133 180.59 24.808C179.502 24.4027 178.584 23.8267 177.838 23.08C177.091 22.312 176.515 21.3947 176.11 20.328C175.726 19.24 175.534 18.024 175.534 16.68C175.534 15.3147 175.704 14.088 176.046 13C176.387 11.8907 176.878 10.952 177.518 10.184C178.158 9.416 178.936 8.82933 179.854 8.424C180.792 8.01867 181.859 7.816 183.054 7.816C183.715 7.816 184.302 7.88 184.814 8.008C185.347 8.136 185.88 8.31733 186.414 8.552V0.935999L191.182 0.167999V24.456ZM208.014 24.424C207.204 24.6587 206.158 24.872 204.878 25.064C203.598 25.2773 202.254 25.384 200.846 25.384C199.417 25.384 198.222 25.192 197.262 24.808C196.324 24.424 195.577 23.8907 195.022 23.208C194.468 22.504 194.073 21.672 193.838 20.712C193.604 19.752 193.486 18.696 193.486 17.544V8.168H198.254V16.968C198.254 18.504 198.457 19.6133 198.862 20.296C199.268 20.9787 200.025 21.32 201.134 21.32C201.476 21.32 201.838 21.3093 202.222 21.288C202.606 21.2453 202.948 21.2027 203.246 21.16V8.168H208.014V24.424ZM217.21 25.32C215.823 25.2987 214.693 25.1493 213.818 24.872C212.965 24.5947 212.282 24.2107 211.77 23.72C211.279 23.208 210.938 22.6 210.746 21.896C210.575 21.1707 210.49 20.36 210.49 19.464V0.935999L215.258 0.167999V18.504C215.258 18.9307 215.29 19.3147 215.354 19.656C215.418 19.9973 215.535 20.2853 215.706 20.52C215.898 20.7547 216.165 20.9467 216.506 21.096C216.847 21.2453 217.306 21.3413 217.882 21.384L217.21 25.32ZM217.815 16.712C217.815 15.2187 218.039 13.9173 218.487 12.808C218.956 11.6773 219.564 10.7387 220.311 9.992C221.058 9.24533 221.911 8.68 222.871 8.296C223.852 7.912 224.855 7.72 225.879 7.72C228.268 7.72 230.156 8.456 231.543 9.928C232.93 11.3787 233.623 13.5227 233.623 16.36C233.623 16.6373 233.612 16.9467 233.591 17.288C233.57 17.608 233.548 17.896 233.527 18.152H222.711C222.818 19.1333 223.276 19.912 224.087 20.488C224.898 21.064 225.986 21.352 227.351 21.352C228.226 21.352 229.079 21.2773 229.911 21.128C230.764 20.9573 231.458 20.7547 231.991 20.52L232.631 24.392C232.375 24.52 232.034 24.648 231.607 24.776C231.18 24.904 230.7 25.0107 230.167 25.096C229.655 25.2027 229.1 25.288 228.503 25.352C227.906 25.416 227.308 25.448 226.711 25.448C225.196 25.448 223.874 25.224 222.743 24.776C221.634 24.328 220.706 23.72 219.959 22.952C219.234 22.1627 218.69 21.2347 218.327 20.168C217.986 19.1013 217.815 17.9493 217.815 16.712ZM229.015 14.888C228.994 14.4827 228.919 14.088 228.791 13.704C228.684 13.32 228.503 12.9787 228.247 12.68C228.012 12.3813 227.703 12.136 227.319 11.944C226.956 11.752 226.498 11.656 225.943 11.656C225.41 11.656 224.951 11.752 224.567 11.944C224.183 12.1147 223.863 12.3493 223.607 12.648C223.351 12.9467 223.148 13.2987 222.999 13.704C222.871 14.088 222.775 14.4827 222.711 14.888H229.015ZM245.447 12.392C245.02 12.2853 244.519 12.1787 243.943 12.072C243.367 11.944 242.748 11.88 242.087 11.88C241.788 11.88 241.425 11.912 240.999 11.976C240.593 12.0187 240.284 12.072 240.071 12.136V25H235.303V9.064C236.156 8.76533 237.159 8.488 238.311 8.232C239.484 7.95467 240.785 7.816 242.215 7.816C242.471 7.816 242.78 7.83733 243.143 7.88C243.505 7.90133 243.868 7.944 244.231 8.008C244.593 8.05067 244.956 8.11467 245.319 8.2C245.681 8.264 245.991 8.34933 246.247 8.456L245.447 12.392Z" fill="url(#paint0_linear_1189_4235)"/>
<defs>
<linearGradient id="paint0_linear_1189_4235" x1="-25" y1="13" x2="270" y2="13" gradientUnits="userSpaceOnUse">
<stop stop-color="#C77CFF"/>
<stop offset="1" stop-color="#9D57FF"/>
</linearGradient>
</defs>
</svg>
